# xmcd CD database file
#
# Track frame offsets:
#	150
#	26684
#	51720
#	73459
#	95662
#	124648
#	163254
#	188132
#	207488
#	227196
#
# Disc length: 3334 seconds
#
# Revision: 2
# Processed by: cddbd v1.5.1PL0 Copyright (c) Steve Scherf et al.
# Submitted via: CDex 1.51
#
DISCID=9e0d040a
DTITLE=中島みゆき - 日-WINGS
DYEAR=1999
DGENRE=Pop
TTITLE0=竹の歌
TTITLE1=NEVER CRY OVER SPLIT MILK
TTITLE2=いつか夢の中へ
TTITLE3=羊の言葉
TTITLE4=異国の女
TTITLE5=あなたの言葉がわからない
TTITLE6=難破船
TTITLE7=知人・友人・愛人・家人
TTITLE8=Good Morning, Ms. Castaway
TTITLE9=明日なき我等
EXTD=YEAR: 1999
EXTT0=
EXTT1=
EXTT2=
EXTT3=
EXTT4=
EXTT5=
EXTT6=
EXTT7=
EXTT8=
EXTT9=
PLAYORDER=
